<?xml version="1.0" standalone="no"?>
<!DOCTYPE svg PUBLIC "-//W3C//DTD SVG 20010904//EN"
 "http://www.w3.org/TR/2001/REC-SVG-20010904/DTD/svg10.dtd">
<svg version="1.0" xmlns="http://www.w3.org/2000/svg"
 width="512.000000pt" height="512.000000pt" viewBox="0 0 512.000000 512.000000"
 preserveAspectRatio="xMidYMid meet">

<g transform="translate(0.000000,512.000000) scale(0.100000,-0.100000)"
fill="#ffffff" stroke="none">
<path d="M4361 3697 c-15 -38 -15 -37 14 -37 28 0 32 17 11 46 -14 18 -15 18
-25 -9z"/>
<path d="M4350 3625 c0 -20 5 -25 25 -25 20 0 25 5 25 25 0 20 -5 25 -25 25
-20 0 -25 -5 -25 -25z"/>
<path d="M4337 3584 c-11 -11 -8 -52 4 -60 8 -5 6 -10 -5 -16 -11 -6 -16 -23
-16 -53 l0 -45 55 0 55 0 0 43 c0 24 -3 47 -7 50 -4 4 -7 24 -7 45 -1 35 -3
37 -36 40 -20 2 -39 0 -43 -4z"/>
<path d="M1440 3530 c-28 -9 -27 -10 15 -14 17 -2 66 -13 110 -26 88 -24 388
-89 393 -85 13 11 -75 47 -188 77 -215 57 -276 65 -330 48z"/>
<path d="M1635 3531 c28 -5 77 -16 109 -25 32 -10 60 -15 63 -12 9 9 -101 37
-162 41 l-60 4 50 -8z"/>
<path d="M1400 3491 c41 -24 36 -27 -11 -7 -22 9 -42 11 -62 5 -42 -12 -43
-15 -10 -34 28 -16 22 -16 -37 1 -19 5 -92 -37 -119 -69 -10 -13 -9 -17 6 -27
16 -10 15 -11 -7 -6 -17 4 -32 -2 -47 -16 -33 -31 -28 -41 15 -35 41 5 76 -8
67 -24 -4 -5 1 -9 10 -9 9 0 14 -4 10 -9 -3 -6 -18 -6 -38 1 -17 5 -49 13 -69
18 -37 7 -38 6 -69 -41 -17 -27 -29 -56 -25 -64 3 -8 1 -15 -5 -15 -6 0 -9 -7
-5 -15 3 -8 1 -15 -5 -15 -6 0 -9 -6 -7 -12 3 -7 -1 -19 -9 -26 -7 -7 -13 -23
-13 -36 0 -18 10 -24 64 -39 35 -9 77 -17 93 -17 24 -1 25 -2 10 -11 -12 -7
-38 -4 -93 11 -42 12 -80 18 -85 13 -4 -4 -10 -22 -13 -40 -7 -37 3 -43 91
-48 38 -2 59 -8 65 -19 5 -9 19 -16 31 -17 12 0 31 -5 42 -10 14 -6 5 -7 -30
-3 -27 3 -54 9 -60 14 -5 4 -37 13 -70 20 -33 7 -65 14 -71 17 -8 3 -22 -26
-38 -80 -14 -47 -26 -87 -26 -90 0 -4 31 -24 132 -83 11 -6 20 -15 20 -20 2
-28 32 -45 109 -63 46 -11 119 -29 163 -41 77 -21 124 -22 76 -2 -18 8 -20 11
-7 11 23 1 22 28 -3 43 -11 7 -20 16 -20 21 0 4 5 5 10 2 20 -12 9 3 -32 47
-69 72 -109 126 -96 130 18 6 2 37 -24 48 -22 8 -22 9 -2 9 19 1 22 9 27 62 3
35 16 82 31 112 17 35 22 54 14 58 -7 4 -1 9 12 11 34 5 35 24 3 37 l-28 10
35 -1 c87 -5 70 34 -23 51 -52 10 -103 24 -176 47 -8 2 -12 6 -9 9 2 2 42 -4
89 -15 46 -11 108 -25 137 -31 29 -7 55 -16 58 -20 5 -9 64 22 64 33 0 4 -17
10 -37 13 -21 4 -47 10 -58 15 -37 16 27 12 77 -6 35 -12 58 -13 97 -6 114 21
254 -36 306 -125 11 -18 23 -33 28 -33 4 0 6 -3 4 -7 -10 -18 13 -53 35 -53
18 0 20 -2 8 -10 -18 -11 -13 -13 85 -32 39 -7 61 -14 51 -16 -15 -3 -16 -6
-5 -13 10 -6 6 -9 -13 -9 -16 0 -28 3 -28 8 0 8 -71 32 -95 32 -13 0 -15 -10
-13 -52 l3 -53 118 -21 c65 -12 132 -24 148 -28 28 -5 30 -4 27 21 -3 23 -11
29 -63 45 -46 14 -51 17 -20 12 22 -3 53 -8 69 -11 l29 -6 -5 53 c-3 28 -11
56 -18 60 -10 6 -10 8 0 12 20 6 -7 108 -28 108 -15 0 -15 2 -2 10 23 16 -20
47 -75 56 -25 3 -45 11 -45 16 0 9 19 7 89 -9 l24 -6 -29 52 c-41 72 -97 131
-125 131 -13 0 -33 7 -43 15 -11 8 -39 15 -62 15 -24 0 -45 4 -48 9 -3 5 -61
19 -128 31 -68 12 -138 29 -157 36 -18 8 -37 12 -41 9 -8 -5 -70 6 -116 20
-10 4 -3 -3 16 -14z m27 -67 c-3 -3 -12 -4 -19 -1 -8 3 -5 6 6 6 11 1 17 -2
13 -5z m-144 -151 c-7 -2 -19 -2 -25 0 -7 3 -2 5 12 5 14 0 19 -2 13 -5z m37
-3 c0 -5 -5 -10 -11 -10 -5 0 -7 5 -4 10 3 6 8 10 11 10 2 0 4 -4 4 -10z
m-255 -100 c3 -5 -3 -10 -15 -10 -12 0 -18 5 -15 10 3 6 10 10 15 10 5 0 12
-4 15 -10z m882 -166 c-3 -3 -12 -4 -19 -1 -8 3 -5 6 6 6 11 1 17 -2 13 -5z
m58 -78 c28 -8 41 -15 30 -15 -11 0 -42 6 -70 13 -27 8 -41 15 -30 15 11 0 43
-6 70 -13z m-660 -285 c8 -14 -14 -24 -28 -13 -7 5 -21 12 -32 15 -12 3 -5 5
17 6 20 0 39 -3 43 -8z"/>
<path d="M167 3493 c-5 -9 -50 -231 -66 -328 -13 -75 -89 -482 -96 -513 l-5
-22 262 0 262 1 33 25 c40 30 118 67 153 71 41 6 48 10 74 50 41 64 41 77 0
97 -20 9 -34 19 -31 22 3 3 15 0 27 -6 12 -6 28 -9 36 -6 18 7 18 60 -1 79 -8
8 -11 17 -8 20 12 12 -28 57 -68 78 l-41 20 44 28 c54 35 70 54 97 113 21 46
28 99 14 97 -19 -3 -33 2 -33 12 0 6 9 8 20 4 52 -16 4 86 -56 121 -44 26 -94
27 -94 3 0 -6 6 -9 13 -6 8 3 14 -1 14 -8 0 -7 -8 -10 -18 -8 -9 3 -30 -3 -45
-13 l-29 -18 20 23 20 23 -35 -6 c-19 -3 -29 -3 -21 0 10 5 6 11 -15 20 -28
12 -27 13 16 7 38 -5 43 -3 32 8 -10 11 -64 15 -241 17 -126 2 -231 0 -234 -5z
m248 -75 c13 -5 7 -6 -20 -2 -22 3 -47 10 -55 15 -18 11 46 0 75 -13z m342 6
c-3 -3 -12 -4 -19 -1 -8 3 -5 6 6 6 11 1 17 -2 13 -5z m-307 -34 c8 -5 12 -12
9 -15 -8 -8 -39 5 -39 16 0 11 11 11 30 -1z m60 -16 c0 -8 -4 -12 -10 -9 -5 3
-10 10 -10 16 0 5 5 9 10 9 6 0 10 -7 10 -16z m-233 0 c-3 -3 -12 -4 -19 -1
-8 3 -5 6 6 6 11 1 17 -2 13 -5z m121 -24 c4 -10 -3 -11 -24 -5 -16 4 -37 9
-46 9 -10 1 -21 6 -25 10 -4 4 15 5 42 3 27 -3 51 -10 53 -17z m404 -32 c-6
-6 -15 -8 -19 -4 -4 4 -1 11 7 16 19 12 27 3 12 -12z m-137 -18 c3 -6 -1 -7
-9 -4 -18 7 -21 14 -7 14 6 0 13 -4 16 -10z m-73 -17 c41 -37 13 -105 -52
-124 -22 -7 -40 -16 -40 -21 0 -5 -9 -4 -19 2 -11 5 -47 10 -80 10 -70 0 -69
-2 -50 93 l12 57 105 0 c84 0 109 -3 124 -17z m-257 -14 c5 -6 3 -9 -7 -9 -24
0 -48 11 -48 22 0 10 39 1 55 -13z m256 -207 c-7 -2 -18 1 -23 6 -8 8 -4 9 13
5 13 -4 18 -8 10 -11z m-116 -12 l20 -9 -20 0 c-11 0 -27 4 -35 9 -13 9 -13
10 0 9 8 0 24 -4 35 -9z m55 -26 c0 -8 -4 -12 -10 -9 -5 3 -10 10 -10 16 0 5
5 9 10 9 6 0 10 -7 10 -16z m75 -34 c3 -5 -1 -10 -9 -10 -9 0 -16 5 -16 10 0
6 4 10 9 10 6 0 13 -4 16 -10z m185 -1 c0 -5 -19 -9 -42 -9 -27 0 -38 3 -30 9
18 11 72 12 72 0z m-230 -22 c35 -12 36 -13 27 -53 -4 -23 -16 -49 -27 -59
-27 -25 -123 -42 -207 -37 -82 5 -79 0 -62 99 l11 63 112 0 c62 0 127 -6 146
-13z m87 -23 c-3 -3 -12 -4 -19 -1 -8 3 -5 6 6 6 11 1 17 -2 13 -5z m44 -135
c43 -15 54 -25 36 -32 -8 -3 -27 1 -42 9 -15 8 -31 11 -36 8 -12 -7 -31 5 -24
17 8 12 25 11 66 -2z"/>
<path d="M668 3483 c7 -3 16 -2 19 1 4 3 -2 6 -13 5 -11 0 -14 -3 -6 -6z"/>
<path d="M4312 3318 l2 -83 5 68 c3 37 11 67 16 67 6 0 11 -29 13 -65 l3 -65
44 0 45 0 0 80 0 80 -65 0 -65 0 2 -82z m75 56 c-3 -3 -12 -4 -19 -1 -8 3 -5
6 6 6 11 1 17 -2 13 -5z"/>
<path d="M4333 3305 c0 -38 2 -53 4 -32 2 20 2 52 0 70 -2 17 -4 1 -4 -38z"/>
<path d="M3566 3344 c-9 -23 -8 -24 14 -24 11 0 20 2 20 4 0 12 -13 36 -20 36
-4 0 -11 -7 -14 -16z"/>
<path d="M3553 3298 c-17 -22 -23 -47 -12 -54 7 -4 6 -10 0 -18 -6 -7 -12 -35
-13 -62 l-3 -49 55 0 55 0 -1 41 c0 22 -4 49 -9 60 -4 10 -7 27 -6 36 5 44
-42 76 -66 46z"/>
<path d="M4305 3221 c-3 -2 -5 -64 -5 -137 0 -127 1 -133 20 -131 19 1 20 8
20 120 0 76 -4 116 -10 112 -5 -3 -10 -1 -10 5 0 7 6 10 13 8 8 -3 13 -40 15
-126 2 -102 5 -120 17 -115 12 4 15 28 15 120 0 84 -3 112 -12 107 -7 -4 -8
-3 -4 5 18 28 26 -9 28 -122 l2 -122 6 124 c3 87 9 126 18 129 6 2 12 -1 12
-8 0 -6 -4 -8 -10 -5 -6 4 -10 -35 -10 -108 0 -105 2 -115 19 -120 11 -3 22
-2 25 1 3 3 6 63 6 134 l0 128 -47 1 c-27 0 -61 2 -76 3 -15 1 -30 0 -32 -3z"/>
<path d="M4600 3123 c-19 -10 -46 -19 -59 -23 -13 -3 -26 -11 -29 -17 -3 -10
29 -13 138 -13 109 0 141 3 138 13 -3 6 -16 13 -30 15 -16 2 -28 11 -31 23 -4
15 -14 19 -49 19 -23 -1 -59 -8 -78 -17z"/>
<path d="M3512 2938 l3 -163 65 0 65 0 3 163 2 162 -70 0 -70 0 2 -162z"/>
<path d="M2904 3044 c-4 -10 -9 -22 -11 -26 -2 -5 5 -8 16 -8 15 0 19 5 16 21
-6 31 -13 35 -21 13z"/>
<path d="M4510 3050 c0 -6 55 -10 145 -10 90 0 145 4 145 10 0 6 -55 10 -145
10 -90 0 -145 -4 -145 -10z"/>
<path d="M1515 3026 c-91 -41 -109 -148 -34 -211 43 -35 115 -35 158 1 71 60
55 174 -30 208 -47 19 -55 19 -94 2z"/>
<path d="M3660 2900 l0 -130 131 0 131 0 -4 73 -3 72 48 -3 c38 -3 47 -1 47
12 0 12 -11 16 -47 16 -45 0 -46 0 -28 20 12 13 15 27 11 45 l-6 25 -140 0
-140 0 0 -130z"/>
<path d="M4500 3015 c0 -13 20 -15 150 -13 92 2 150 7 150 13 0 6 -58 11 -150
13 -130 2 -150 0 -150 -13z"/>
<path d="M4060 2995 l-23 -25 53 0 53 0 -23 25 c-13 14 -26 25 -30 25 -4 0
-17 -11 -30 -25z"/>
<path d="M3963 2983 l-25 -28 31 -3 c23 -2 39 3 56 20 13 12 21 26 19 30 -11
18 -56 7 -81 -19z"/>
<path d="M4147 3002 c-11 -16 32 -52 62 -52 36 0 39 12 11 40 -20 20 -64 27
-73 12z"/>
<path d="M2446 2983 c-4 -13 -13 -19 -24 -17 -10 2 -24 -6 -34 -20 l-17 -24
85 -1 85 -1 -17 25 c-9 14 -23 25 -32 25 -8 0 -20 8 -27 17 -11 15 -13 15 -19
-4z"/>
<path d="M2826 2978 c-9 -12 -16 -25 -16 -29 0 -3 32 -7 70 -7 60 -1 70 1 70
16 1 16 1 16 11 0 10 -18 59 -26 59 -10 0 15 -46 52 -64 52 -9 0 -14 -4 -11
-10 3 -5 -1 -10 -10 -10 -9 0 -13 5 -10 10 3 6 -3 10 -15 10 -12 0 -18 -4 -15
-10 3 -5 1 -10 -4 -10 -6 0 -11 5 -11 10 0 19 -39 10 -54 -12z"/>
<path d="M3360 2986 c0 -8 -10 -16 -21 -18 -12 -2 -28 -13 -37 -25 l-14 -23
82 0 82 0 -15 23 c-8 12 -22 21 -31 21 -8 -1 -18 7 -21 17 -7 22 -25 25 -25 5z"/>
<path d="M4495 2980 c4 -6 68 -10 161 -10 96 0 154 4 154 10 0 6 -60 10 -161
10 -104 0 -158 -3 -154 -10z"/>
<path d="M2335 2970 c-3 -5 -1 -10 4 -10 6 0 11 5 11 10 0 6 -2 10 -4 10 -3 0
-8 -4 -11 -10z"/>
<path d="M3478 2974 c-3 -5 -6 -53 -7 -108 -2 -77 1 -97 11 -94 9 3 14 30 16
84 3 76 -8 139 -20 118z"/>
<path d="M4058 2953 c17 -2 47 -2 65 0 17 2 3 4 -33 4 -36 0 -50 -2 -32 -4z"/>
<path d="M4490 2950 c0 -6 60 -10 160 -10 100 0 160 4 160 10 0 6 -60 10 -160
10 -100 0 -160 -4 -160 -10z"/>
<path d="M2332 2866 c4 -111 23 -115 23 -4 0 57 -4 83 -13 86 -10 3 -12 -15
-10 -82z"/>
<path d="M4170 2924 c0 -12 10 -14 47 -12 66 4 70 28 4 28 -39 0 -51 -4 -51
-16z"/>
<path d="M4282 2858 l3 -83 33 -3 c28 -3 32 0 32 21 0 31 23 53 38 35 5 -7 12
-22 14 -33 2 -15 11 -20 33 -20 l30 0 3 83 3 82 -96 0 -96 0 3 -82z"/>
<path d="M2801 2875 l2 -55 112 0 112 0 2 55 2 55 -116 0 -116 0 2 -55z m129
41 c0 -11 -19 -15 -25 -6 -3 5 1 10 9 10 9 0 16 -2 16 -4z m28 -70 c3 -13 -6
-16 -47 -16 -28 0 -51 4 -51 8 0 13 24 39 40 45 19 6 54 -16 58 -37z"/>
<path d="M4022 2915 c-2 -18 -8 -20 -47 -17 l-45 4 0 -36 c0 -35 1 -36 38 -36
54 0 64 10 59 61 -2 24 -4 35 -5 24z"/>
<path d="M4060 2885 c0 -25 5 -45 10 -45 6 0 10 20 10 45 0 25 -4 45 -10 45
-5 0 -10 -20 -10 -45z"/>
<path d="M4113 2885 c0 -27 2 -38 4 -22 2 15 2 37 0 50 -2 12 -4 0 -4 -28z"/>
<path d="M4153 2885 c0 -27 2 -38 4 -22 2 15 2 37 0 50 -2 12 -4 0 -4 -28z"/>
<path d="M4492 2918 c4 -10 47 -14 161 -16 135 -2 157 0 157 13 0 13 -23 15
-161 15 -124 0 -160 -3 -157 -12z"/>
<path d="M4820 2915 c0 -13 19 -15 121 -15 92 0 120 3 117 13 -3 8 -39 13
-121 15 -100 2 -117 0 -117 -13z"/>
<path d="M2370 2839 c0 -67 1 -70 23 -67 17 2 23 11 27 37 10 68 63 64 76 -6
5 -28 10 -33 28 -31 19 3 21 10 24 71 l3 67 -91 0 -90 0 0 -71z"/>
<path d="M2560 2890 c0 -19 6 -20 116 -20 105 0 115 2 112 18 -3 15 -18 17
-116 20 -107 3 -112 2 -112 -18z"/>
<path d="M3040 2890 c0 -19 7 -20 120 -20 66 0 120 -3 120 -7 0 -5 -54 -7
-120 -5 l-120 3 0 -46 0 -46 144 2 144 2 6 38 c11 70 76 59 76 -13 0 -23 4
-28 25 -28 24 0 25 2 25 70 l0 69 -210 1 c-203 0 -210 -1 -210 -20z"/>
<path d="M4170 2865 l0 -36 43 3 c39 3 42 5 42 33 0 28 -3 30 -42 33 l-43 3 0
-36z"/>
<path d="M4495 2880 c-4 -7 50 -10 154 -10 101 0 161 4 161 10 0 6 -58 10
-154 10 -93 0 -157 -4 -161 -10z"/>
<path d="M4820 2880 c0 -6 48 -10 125 -10 77 0 125 4 125 10 0 6 -48 10 -125
10 -77 0 -125 -4 -125 -10z"/>
<path d="M2560 2815 l0 -45 109 0 109 0 5 26 c11 60 5 64 -114 64 l-109 0 0
-45z"/>
<path d="M4505 2832 c3 -15 11 -28 16 -30 5 -2 9 -10 9 -18 0 -11 24 -14 125
-14 113 0 125 2 135 20 6 10 9 24 8 31 -2 6 3 14 11 16 13 5 11 -8 -6 -54 -4
-10 25 -13 126 -13 98 0 131 3 132 13 1 6 2 26 4 44 l3 32 -285 1 -285 0 7
-28z"/>
<path d="M3932 2797 c3 -22 6 -22 163 -22 153 0 160 1 160 20 0 19 -7 20 -163
22 -163 2 -163 2 -160 -20z"/>
<path d="M2800 2790 c0 -18 5 -21 33 -18 20 2 32 8 32 18 0 10 -12 16 -32 18
-28 3 -33 0 -33 -18z"/>
<path d="M2960 2790 c0 -18 5 -21 33 -18 20 2 32 8 32 18 0 10 -12 16 -32 18
-28 3 -33 0 -33 -18z"/>
<path d="M1792 2700 c-13 -17 -21 -35 -17 -38 3 -4 27 -15 53 -24 57 -20 36
-22 -33 -4 -34 9 -56 10 -69 4 -15 -8 -16 -12 -5 -19 10 -6 7 -9 -11 -8 -27 0
-175 -39 -150 -40 8 -1 21 -10 28 -21 12 -19 11 -19 -28 1 -34 18 -43 19 -56
8 -14 -12 -14 -14 3 -20 16 -7 15 -8 -4 -8 -24 -1 -32 -26 -10 -34 7 -4 6 -6
-4 -6 -21 -1 -25 -13 -28 -79 -2 -40 3 -61 20 -90 39 -63 85 -90 221 -128 162
-45 179 -57 153 -107 -7 -14 -11 -28 -8 -31 11 -11 -52 -18 -111 -13 -86 8
-161 39 -225 91 -30 25 -58 43 -63 40 -10 -6 -11 -31 0 -37 4 -2 2 -3 -4 -1
-6 1 -19 -14 -28 -34 -10 -20 -32 -54 -49 -76 l-31 -39 34 -30 c19 -16 48 -37
64 -48 27 -16 31 -16 41 -2 9 11 20 14 45 8 23 -5 29 -10 19 -16 -16 -9 -16
-9 36 -33 39 -18 185 -35 185 -22 0 4 -10 11 -22 16 -18 8 -15 8 12 3 19 -4
51 -7 70 -6 45 1 154 49 145 63 -4 6 -15 8 -25 5 -10 -3 -21 -1 -25 5 -12 19
2 23 40 10 40 -13 56 -4 97 54 17 23 19 30 7 38 -11 8 -10 9 4 4 14 -4 22 3
33 29 17 42 18 75 2 75 -6 0 -3 7 8 15 14 11 15 14 4 15 -13 0 -13 2 -1 9 12
8 12 14 0 47 -13 35 -19 39 -72 52 -66 16 -78 36 -15 26 47 -8 46 3 -4 27
-130 65 -228 87 -228 52 0 -16 -14 -10 -16 8 -1 5 -2 13 -3 18 0 5 -14 12 -31
16 -16 4 -30 11 -30 16 0 5 -10 14 -22 19 -21 8 -21 9 -3 9 11 1 25 11 30 24
6 12 25 27 45 33 48 16 48 31 0 44 -23 6 -40 14 -36 17 3 3 35 -5 71 -18 45
-16 61 -26 53 -32 -9 -6 -8 -7 4 -3 9 3 49 -11 88 -30 39 -18 74 -34 79 -34
16 0 84 109 78 124 -4 10 -1 16 8 16 16 0 30 35 20 50 -4 6 -16 8 -28 5 -16
-5 -18 -4 -8 3 24 17 -94 54 -189 59 l-85 5 -23 -32z m201 -77 c-7 -2 -19 -2
-25 0 -7 3 -2 5 12 5 14 0 19 -2 13 -5z m-218 -23 c3 -5 -1 -10 -9 -10 -8 0
-18 5 -21 10 -3 6 1 10 9 10 8 0 18 -4 21 -10z m-155 -135 c47 -14 67 -23 45
-20 -60 8 -139 28 -149 37 -17 14 16 9 104 -17z m-25 -25 c8 -13 -5 -13 -25 0
-13 8 -13 10 2 10 9 0 20 -4 23 -10z m-38 -36 c-3 -3 -12 -4 -19 -1 -8 3 -5 6
6 6 11 1 17 -2 13 -5z m313 -44 c12 -8 11 -10 -5 -9 -11 1 -31 5 -45 9 -24 8
-24 8 5 9 17 0 37 -4 45 -9z m10 -143 c163 -38 202 -50 186 -59 -9 -5 -21 -6
-26 -3 -21 13 -216 65 -245 66 -16 0 -39 5 -50 10 -28 13 52 5 135 -14z m-273
-183 c-3 -3 -12 -4 -19 -1 -8 3 -5 6 6 6 11 1 17 -2 13 -5z m40 -10 c-3 -3
-12 -4 -19 -1 -8 3 -5 6 6 6 11 1 17 -2 13 -5z m356 -1 c-7 -2 -19 -2 -25 0
-7 3 -2 5 12 5 14 0 19 -2 13 -5z m-313 -7 c0 -11 -19 -15 -25 -6 -3 5 1 10 9
10 9 0 16 -2 16 -4z m40 -10 c0 -2 -7 -6 -15 -10 -8 -3 -15 -1 -15 4 0 6 7 10
15 10 8 0 15 -2 15 -4z m50 -36 c0 -5 -4 -10 -9 -10 -6 0 -13 5 -16 10 -3 6 1
10 9 10 9 0 16 -4 16 -10z m20 -91 c0 -4 -13 -2 -30 4 -16 6 -30 17 -30 25 0
10 7 9 30 -5 17 -9 30 -20 30 -24z"/>
<path d="M4683 2723 c-13 -2 -23 -9 -23 -14 0 -5 -12 -9 -26 -9 -36 0 -126
-53 -164 -97 -83 -94 -99 -235 -36 -311 29 -33 131 -86 152 -78 8 3 13 2 10
-2 -3 -5 26 -16 65 -25 113 -27 139 -41 139 -75 0 -21 6 -31 28 -39 24 -10 25
-11 5 -12 -12 -1 -24 3 -27 8 -3 5 -23 0 -43 -10 -43 -22 -71 -23 -145 -8 -60
13 -123 42 -155 71 -24 23 -56 18 -47 -7 4 -10 2 -13 -8 -10 -8 3 -34 -16 -63
-45 l-49 -50 29 -1 30 -1 -33 -8 c-18 -4 -36 -11 -40 -15 -18 -18 148 -115
199 -115 14 0 30 -5 37 -12 13 -13 176 -16 242 -4 113 21 212 93 259 188 38
74 38 86 5 98 -24 10 -25 30 -1 30 7 0 6 -4 -3 -10 -12 -8 -11 -10 8 -10 23 0
25 5 22 55 -2 37 -18 51 -70 59 -21 3 -43 13 -48 22 -8 14 -15 15 -41 6 -18
-7 -31 -7 -31 -1 0 5 10 9 23 10 21 0 21 1 2 10 -16 7 -14 8 12 5 19 -3 36 0
42 8 14 17 -32 39 -141 66 -128 33 -148 44 -148 79 0 27 -4 31 -42 40 l-43 11
51 -5 c31 -2 56 1 63 8 18 18 119 12 185 -12 33 -11 61 -19 64 -17 2 2 15 -2
30 -10 27 -14 28 -13 94 58 63 69 65 74 50 92 -24 26 -102 64 -169 81 -53 14
-196 18 -250 8z m240 -90 c-7 -2 -19 -2 -25 0 -7 3 -2 5 12 5 14 0 19 -2 13
-5z m-383 -148 c31 -12 32 -14 10 -14 -14 0 -36 6 -50 14 -31 18 -7 18 40 0z
m-75 -35 c3 -6 -1 -7 -9 -4 -18 7 -21 14 -7 14 6 0 13 -4 16 -10z m241 -68
c-16 -2 -35 3 -44 12 -13 13 -10 13 29 3 40 -11 42 -12 15 -15z m144 -62 c0
-11 -4 -20 -10 -20 -5 0 -10 9 -10 20 0 11 5 20 10 20 6 0 10 -9 10 -20z
m-220 -64 c0 -2 -9 -6 -20 -9 -11 -3 -20 -1 -20 4 0 5 9 9 20 9 11 0 20 -2 20
-4z m45 -36 c3 -6 -1 -7 -9 -4 -18 7 -21 14 -7 14 6 0 13 -4 16 -10z m-128
-176 c-3 -3 -12 -4 -19 -1 -8 3 -5 6 6 6 11 1 17 -2 13 -5z m-192 -22 c-3 -3
-11 0 -18 7 -9 10 -8 11 6 5 10 -3 15 -9 12 -12z m233 -2 c8 0 13 -3 9 -6 -3
-4 -18 -3 -34 0 -21 6 -24 9 -12 16 8 6 15 6 17 0 2 -6 11 -10 20 -10z m69
-11 c-14 -8 -22 -8 -30 0 -8 8 -3 11 19 11 25 -1 27 -2 11 -11z m-192 -9 c13
-6 15 -9 5 -9 -8 0 -22 4 -30 9 -18 12 -2 12 25 0z m285 -34 c0 -4 -7 -5 -16
-2 -9 3 -20 6 -25 6 -5 0 -9 6 -9 14 0 11 5 12 25 3 14 -7 25 -16 25 -21z
m117 -2 c-3 -3 -12 -4 -19 -1 -8 3 -5 6 6 6 11 1 17 -2 13 -5z"/>
<path d="M2370 2709 c0 -7 -11 -9 -29 -6 -33 7 -33 5 -60 -148 -6 -33 -12 -71
-15 -85 -2 -14 -7 -37 -11 -52 -5 -20 -3 -28 6 -28 9 -1 8 -4 -3 -11 -11 -6
-18 -22 -18 -39 0 -27 4 -30 85 -55 47 -15 91 -25 99 -22 8 3 16 2 18 -3 5
-16 25 4 32 33 4 17 2 27 -5 27 -6 0 -3 7 6 17 11 10 15 27 13 45 -3 15 -1 28
3 28 6 0 16 49 25 120 2 14 8 42 13 63 8 34 7 39 -12 48 l-22 10 22 -5 c15 -3
23 2 27 18 15 55 13 56 -84 56 -60 0 -90 -4 -90 -11z m67 -165 c-3 -3 -12 -4
-19 -1 -8 3 -5 6 6 6 11 1 17 -2 13 -5z m-40 -10 c-3 -3 -12 -4 -19 -1 -8 3
-5 6 6 6 11 1 17 -2 13 -5z m40 -10 c-3 -3 -12 -4 -19 -1 -8 3 -5 6 6 6 11 1
17 -2 13 -5z m50 -10 c-3 -3 -12 -4 -19 -1 -8 3 -5 6 6 6 11 1 17 -2 13 -5z
m-36 -93 c11 -12 9 -13 -12 -8 -13 4 -41 7 -61 7 -21 0 -38 4 -38 9 0 14 96 7
111 -8z"/>
<path d="M2765 2709 c5 -7 -4 -9 -26 -7 l-32 3 -18 -90 c-22 -113 -22 -105 -1
-106 13 0 14 -2 2 -6 -31 -12 -28 -28 7 -44 22 -10 30 -18 22 -21 -8 -3 -24 2
-37 10 -13 8 -22 11 -21 6 2 -5 -3 -27 -9 -48 -6 -22 -10 -41 -9 -41 1 -1 11
-7 22 -13 20 -11 20 -11 -2 -12 -24 0 -30 -13 -37 -77 -5 -40 5 -56 19 -33 3
6 16 10 28 9 20 -1 20 -2 -3 -8 l-25 -7 25 -16 c24 -16 133 -48 162 -48 11 0
20 28 33 104 l18 105 -28 26 -29 26 35 -3 c32 -3 34 -2 39 39 5 33 3 43 -9 47
-9 3 31 4 89 4 58 -1 113 2 123 7 11 4 23 3 30 -4 8 -8 5 -11 -13 -11 -25 -1
-25 -1 -4 -13 61 -35 89 -75 96 -137 3 -22 10 -26 53 -34 28 -4 77 -17 109
-27 42 -13 63 -16 70 -9 12 12 -9 30 -36 30 -9 0 -20 5 -24 11 -5 9 3 10 29 5
31 -6 36 -4 42 15 10 31 -4 127 -25 175 -17 39 -21 41 -81 54 -99 21 -197 57
-177 65 9 3 29 0 45 -8 32 -16 163 -50 170 -44 8 9 -78 77 -97 77 -11 0 -20 4
-20 8 0 11 -82 33 -140 38 -186 16 -210 16 -210 5 0 -6 -9 -11 -20 -11 -11 0
-20 4 -20 9 0 4 -27 9 -61 10 -41 1 -58 -2 -54 -10z m192 -15 c-3 -3 -12 -4
-19 -1 -8 3 -5 6 6 6 11 1 17 -2 13 -5z m70 -20 c-3 -3 -12 -4 -19 -1 -8 3 -5
6 6 6 11 1 17 -2 13 -5z m40 -10 c-3 -3 -12 -4 -19 -1 -8 3 -5 6 6 6 11 1 17
-2 13 -5z m58 -14 c13 -5 14 -9 5 -9 -8 0 -24 4 -35 9 -13 5 -14 9 -5 9 8 0
24 -4 35 -9z m-36 -127 c3 -2 -12 -2 -31 -1 -20 2 -34 6 -31 11 4 6 52 -1 62
-10z m-269 -4 c0 -6 9 -8 21 -4 15 5 19 4 15 -4 -4 -6 -1 -11 6 -12 9 0 9 -2
1 -5 -11 -5 -73 22 -73 31 0 3 7 5 15 5 8 0 15 -5 15 -11z m457 -35 c-3 -3
-12 -4 -19 -1 -8 3 -5 6 6 6 11 1 17 -2 13 -5z m-510 -50 c-3 -3 -12 -4 -19
-1 -8 3 -5 6 6 6 11 1 17 -2 13 -5z m50 -10 c-3 -3 -12 -4 -19 -1 -8 3 -5 6 6
6 11 1 17 -2 13 -5z m438 -54 c8 -13 -5 -13 -25 0 -13 8 -13 10 2 10 9 0 20
-4 23 -10z m-525 -40 c0 -5 -4 -10 -9 -10 -6 0 -13 5 -16 10 -3 6 1 10 9 10 9
0 16 -4 16 -10z m-3 -26 c-3 -3 -12 -4 -19 -1 -8 3 -5 6 6 6 11 1 17 -2 13 -5z
m40 -10 c-3 -3 -12 -4 -19 -1 -8 3 -5 6 6 6 11 1 17 -2 13 -5z m38 -102 c-3
-3 -11 0 -18 7 -9 10 -8 11 6 5 10 -3 15 -9 12 -12z"/>
<path d="M3616 2701 c-20 -71 -18 -75 31 -99 27 -12 39 -19 28 -16 -11 4 -33
9 -50 12 -24 3 -28 2 -18 -8 7 -7 32 -14 55 -14 24 -1 45 -4 48 -7 3 -4 25
-11 50 -17 44 -10 44 -10 10 -11 -19 -1 -65 7 -102 16 -37 9 -70 15 -73 12 -3
-3 -7 -19 -10 -35 -2 -16 -13 -74 -24 -129 -11 -55 -16 -103 -12 -108 4 -4 27
-8 51 -10 26 -1 45 -7 48 -16 3 -10 -3 -11 -29 -5 -55 13 -84 11 -84 -6 0 -17
199 -74 225 -64 8 3 104 5 213 4 177 -1 198 1 204 16 3 9 1 26 -6 37 -11 17
-11 19 2 14 13 -5 17 5 23 49 3 30 3 58 -1 62 -3 4 -95 9 -202 10 l-195 4 5
32 c5 30 2 34 -26 44 -18 5 -52 14 -76 17 -43 7 -117 34 -95 35 6 0 53 -9 104
-20 95 -20 101 -19 113 14 2 5 45 9 96 7 70 -1 91 1 85 10 -5 9 1 10 22 5 16
-4 80 -10 143 -13 l114 -5 -5 31 c-2 17 -1 31 3 31 3 0 9 12 12 28 4 18 0 31
-11 41 -15 12 -15 13 0 8 11 -4 18 1 22 16 13 49 22 47 -259 47 -205 0 -265
-3 -265 -12 0 -10 -2 -10 -8 -1 -5 8 -33 12 -80 11 -56 -1 -73 -5 -76 -17z
m603 -107 c9 -8 -45 -2 -64 6 -14 7 -8 8 20 3 22 -3 42 -7 44 -9z m-379 -24
c-19 -13 -30 -13 -30 0 0 6 10 10 23 10 18 0 19 -2 7 -10z m235 0 c13 -6 15
-9 5 -9 -8 0 -22 4 -30 9 -18 12 -2 12 25 0z m-182 -7 c-7 -2 -19 -2 -25 0 -7
3 -2 5 12 5 14 0 19 -2 13 -5z m50 -10 c-7 -2 -19 -2 -25 0 -7 3 -2 5 12 5 14
0 19 -2 13 -5z m47 -13 c0 -5 -9 -10 -21 -10 -11 0 -17 5 -14 10 3 6 13 10 21
10 8 0 14 -4 14 -10z m-153 -6 c-3 -3 -12 -4 -19 -1 -8 3 -5 6 6 6 11 1 17 -2
13 -5z m258 -244 c3 -5 -3 -10 -14 -10 -12 0 -21 5 -21 10 0 6 6 10 14 10 8 0
18 -4 21 -10z m40 -60 c3 -6 -1 -7 -9 -4 -18 7 -21 14 -7 14 6 0 13 -4 16 -10z"/>
<path d="M1135 2569 c-4 -5 1 -9 9 -9 8 0 18 -5 22 -12 5 -8 2 -9 -12 -4 -10
4 -31 10 -45 13 -24 5 -26 3 -22 -21 4 -19 11 -26 29 -26 12 0 26 -5 30 -11 5
-8 -1 -10 -20 -7 -24 5 -26 3 -26 -32 l0 -38 78 -21 c43 -12 86 -21 95 -21 9
0 18 -4 21 -8 8 -13 -106 -2 -129 12 -11 7 -30 15 -42 18 -20 5 -24 0 -37 -46
-18 -58 -69 -134 -126 -187 -77 -71 -232 -89 -330 -39 -65 33 -96 59 -127 103
-15 22 -42 46 -60 54 -18 7 -33 18 -33 23 0 6 13 4 29 -5 l29 -15 -10 38 c-11
38 -6 174 7 205 7 16 -4 17 -138 17 l-146 0 -7 -36 c-9 -49 2 -177 20 -237 96
-308 415 -500 719 -432 42 9 79 21 82 25 2 4 -32 20 -77 35 -45 14 -94 33
-109 41 -16 8 -43 15 -61 15 l-33 1 30 7 c17 4 46 2 69 -6 21 -7 48 -13 60
-13 12 0 26 -4 31 -9 13 -12 117 -41 147 -41 61 0 216 142 271 249 51 96 54
111 25 111 -13 0 -33 7 -44 16 -19 15 -19 16 1 9 59 -19 72 -18 77 9 4 20 1
26 -11 26 -17 0 -41 18 -41 31 0 4 13 4 29 -1 16 -4 32 -6 35 -2 12 11 6 130
-6 135 -10 4 -9 8 2 16 12 9 10 11 -12 11 -14 0 -28 4 -30 10 -1 5 -28 13 -58
19 -30 5 -76 16 -102 25 -29 9 -50 11 -53 5z"/>
<path d="M711 2514 c-95 -80 -33 -234 89 -221 89 10 137 106 95 187 -32 62
-129 80 -184 34z"/>
<path d="M4963 2306 c3 -8 1 -17 -6 -19 -7 -2 -1 -2 13 0 33 6 38 12 20 23
-22 14 -33 12 -27 -4z"/>
<path d="M3210 2300 c0 -6 15 -18 33 -26 l32 -14 -35 6 c-35 5 -36 5 -67 -55
-27 -53 -29 -61 -15 -65 43 -13 206 -37 218 -32 15 6 19 32 7 39 -5 2 -2 2 4
1 14 -4 36 34 47 78 7 30 14 27 -117 57 -102 24 -107 25 -107 11z m149 -136
c10 -9 -35 -3 -49 6 -11 8 -7 9 15 4 17 -4 32 -8 34 -10z"/>
<path d="M2230 2271 c0 -11 6 -22 13 -24 7 -4 6 -6 -4 -6 -17 -1 -29 -28 -29
-66 0 -18 15 -24 113 -47 61 -14 113 -25 115 -23 2 1 4 22 5 46 1 24 6 47 11
50 21 15 -6 36 -60 48 -33 7 -77 19 -99 27 -54 19 -65 18 -65 -5z m154 -61
c15 -15 -14 -12 -49 6 l-30 14 35 -5 c19 -3 39 -10 44 -15z"/>
<path d="M3527 2223 c-3 -5 -8 -28 -12 -52 -5 -32 -4 -46 6 -52 11 -7 10 -9
-3 -9 -11 0 -18 -8 -18 -20 0 -14 11 -22 43 -30 23 -6 62 -17 87 -25 l45 -14
-75 4 c-41 2 -83 6 -92 10 -10 4 -18 5 -18 2 0 -3 -7 -41 -15 -84 -8 -43 -15
-81 -15 -84 0 -4 157 -7 350 -8 l349 0 7 34 c3 19 4 41 1 49 -7 18 -185 60
-228 54 -31 -5 -151 21 -165 35 -4 4 -21 7 -38 7 -38 0 -166 36 -180 50 -15
15 48 11 107 -7 26 -8 54 -13 61 -10 7 3 17 28 23 55 l10 50 -56 12 c-31 6
-77 18 -103 26 -53 16 -65 17 -71 7z m110 -49 c-3 -3 -12 -4 -19 -1 -8 3 -5 6
6 6 11 1 17 -2 13 -5z m178 -180 c61 -14 121 -29 135 -32 l25 -6 -25 -3 c-24
-3 -256 50 -268 61 -10 11 24 6 133 -20z"/>
<path d="M2610 2181 c0 -5 -3 -17 -7 -27 -4 -12 -3 -15 5 -10 17 10 15 -3 -3
-20 -8 -9 -15 -26 -15 -38 0 -21 9 -26 98 -46 146 -33 279 -68 262 -69 -8 0
-91 17 -184 39 -93 22 -172 40 -176 40 -7 0 -30 -114 -30 -148 0 -33 55 -42
252 -42 148 0 179 3 193 16 8 9 23 13 32 10 19 -8 83 12 83 25 0 5 -17 9 -37
10 -46 1 -105 21 -111 37 -5 16 7 15 59 -3 68 -24 147 -27 181 -7 15 9 28 20
28 24 0 4 6 8 14 8 7 0 35 23 61 51 56 60 56 60 -60 82 -120 24 -125 24 -189
-8 -48 -24 -76 -30 -148 -33 l-89 -5 3 39 c3 37 1 39 -27 42 -16 2 -61 12
-100 23 -78 21 -95 23 -95 10z m525 -161 c3 -5 1 -10 -4 -10 -6 0 -11 5 -11
10 0 6 2 10 4 10 3 0 8 -4 11 -10z m-258 -80 c-1 -11 -7 -20 -13 -20 -7 0 -10
8 -7 20 3 11 9 20 14 20 4 0 7 -9 6 -20z m-40 -6 c-3 -3 -12 -4 -19 -1 -8 3
-5 6 6 6 11 1 17 -2 13 -5z"/>
<path d="M2191 2073 c-7 -38 -14 -75 -16 -83 -4 -12 12 -20 70 -35 42 -10 78
-22 81 -27 8 -13 -16 -9 -86 12 -69 21 -80 17 -80 -27 0 -12 -3 -29 -6 -37 -6
-15 7 -16 117 -14 l123 3 17 90 c26 131 26 133 -18 144 -21 5 -59 12 -85 16
-26 3 -50 10 -53 16 -4 5 -17 9 -30 9 -21 0 -24 -7 -34 -67z"/>
<path d="M3811 2050 c15 -9 152 -40 177 -40 23 0 11 15 -27 33 -40 18 -181 25
-150 7z"/>
<path d="M3981 2047 c14 -7 33 -19 41 -28 17 -17 145 -55 154 -46 3 3 8 24 11
46 l6 41 -119 -1 c-99 0 -115 -3 -93 -12z"/>
<path d="M2311 1714 c-34 -24 -51 -74 -51 -149 0 -121 39 -169 140 -170 100 0
140 39 140 140 l0 56 -67 -3 c-66 -3 -68 -4 -71 -30 -3 -26 -1 -28 32 -28 33
0 36 -2 36 -30 0 -48 -70 -68 -118 -34 -20 14 -22 24 -22 98 0 56 4 87 13 94
7 6 44 12 82 14 68 3 70 4 73 31 l3 27 -83 0 c-61 0 -90 -4 -107 -16z"/>
<path d="M2610 1565 l0 -165 35 0 c34 0 35 1 35 40 0 42 6 48 50 52 20 3 29
-5 50 -44 16 -30 33 -49 49 -53 40 -10 45 8 16 65 -26 51 -26 52 -8 77 54 77
55 99 7 153 l-36 40 -99 0 -99 0 0 -165z m190 91 c30 -37 -12 -89 -82 -102
l-38 -6 0 61 0 61 54 0 c34 0 58 -5 66 -14z"/>
<path d="M2984 1696 c-34 -34 -34 -35 -34 -125 0 -129 21 -166 100 -171 86 -6
111 -1 141 31 28 30 29 34 29 134 0 102 0 104 -31 134 -28 29 -36 31 -101 31
-66 0 -72 -2 -104 -34z m167 -53 c6 -16 9 -59 7 -97 -4 -76 -19 -96 -71 -96
-60 0 -67 11 -67 114 0 51 3 96 7 99 3 4 30 7 60 7 49 0 54 -2 64 -27z"/>
<path d="M3310 1566 l0 -164 25 -4 c13 -3 27 -3 30 0 3 3 5 61 5 129 l0 124
28 -20 c15 -12 45 -36 67 -55 38 -33 39 -37 43 -105 4 -71 4 -71 33 -71 l29 0
0 166 0 165 -32 -3 c-32 -3 -32 -4 -29 -50 1 -27 -1 -48 -6 -48 -4 0 -35 23
-68 50 -45 38 -68 50 -92 50 l-33 0 0 -164z"/>
<path d="M3670 1565 l0 -165 30 0 30 0 0 165 0 165 -30 0 -30 0 0 -165z"/>
<path d="M3830 1565 l0 -165 30 0 30 0 0 120 c0 69 4 120 9 120 6 0 37 -23 70
-50 l61 -51 0 -70 0 -70 33 3 32 3 3 163 2 162 -35 0 -35 0 0 -50 c0 -27 -3
-50 -6 -50 -3 0 -33 23 -66 50 -46 39 -68 50 -94 50 l-34 0 0 -165z"/>
<path d="M4211 1699 c-30 -30 -31 -33 -31 -127 0 -120 16 -155 81 -172 67 -18
122 -5 159 36 28 32 31 41 28 92 l-3 57 -67 3 -68 3 0 -31 c0 -28 3 -30 35
-30 32 0 35 -2 35 -30 0 -35 -23 -50 -74 -50 -50 0 -66 27 -66 113 0 100 6
107 90 107 l70 0 0 30 0 30 -79 0 c-75 0 -81 -2 -110 -31z"/>
<path d="M4530 1600 l0 -130 34 -37 c33 -36 34 -37 112 -37 79 -1 79 -1 82 27
3 27 3 27 -58 27 -80 0 -100 11 -100 55 l0 34 63 3 c59 3 62 4 65 31 l3 27
-65 0 -66 0 0 35 0 35 75 0 75 0 0 30 0 30 -110 0 -110 0 0 -130z"/>
<path d="M4830 1566 l0 -164 30 -4 c17 -3 32 -2 35 0 3 3 5 59 5 124 0 65 3
118 8 118 4 0 35 -23 70 -51 l62 -51 0 -69 0 -69 30 0 30 0 0 165 0 165 -30 0
c-29 0 -30 -1 -30 -50 0 -27 -3 -50 -6 -50 -3 0 -33 23 -67 50 -50 40 -69 50
-99 50 l-38 0 0 -164z"/>
</g>
</svg>
